<svg xmlns="http://www.w3.org/2000/svg" viewBox="0 0 64 64" width="64" height="64" role="img" aria-label="Synthex">
  <defs>
    <linearGradient id="bg" x1="0" y1="0" x2="0" y2="1">
      <stop offset="0" stop-color="#123654" />
      <stop offset="1" stop-color="#081522" />
    </linearGradient>
    <linearGradient id="amber" x1="0" y1="0" x2="1" y2="1">
      <stop offset="0" stop-color="#fcd34d" />
      <stop offset="1" stop-color="#f3b113" />
    </linearGradient>
  </defs>
  <rect x="2" y="2" width="60" height="60" rx="15" fill="url(#bg)" stroke="#2dd4bf" stroke-opacity="0.55" stroke-width="2" />
  <g fill="url(#amber)">
    <rect x="16.5" y="5.5" width="9" height="9" rx="2.5" />
    <rect x="27.5" y="5.5" width="9" height="9" rx="2.5" />
    <rect x="38.5" y="5.5" width="9" height="9" rx="2.5" />
    <rect x="16.5" y="16.5" width="9" height="9" rx="2.5" />
    <rect x="16.5" y="27.5" width="9" height="9" rx="2.5" />
    <rect x="27.5" y="27.5" width="9" height="9" rx="2.5" />
    <rect x="38.5" y="27.5" width="9" height="9" rx="2.5" />
    <rect x="38.5" y="38.5" width="9" height="9" rx="2.5" />
    <rect x="16.5" y="49.5" width="9" height="9" rx="2.5" />
    <rect x="27.5" y="49.5" width="9" height="9" rx="2.5" />
    <rect x="38.5" y="49.5" width="9" height="9" rx="2.5" />
  </g>
</svg>
